<svg width="313" height="311" viewBox="0 0 313 311" fill="none" xmlns="http://www.w3.org/2000/svg">
<path d="M174.131 309.98C88.5684 319.733 11.2825 258.471 1.50149 173.154C0.163641 161.48 0.160313 149.952 1.3717 138.742C1.60133 136.592 1.87423 134.461 2.19372 132.341C4.81617 122.17 13.4889 114.176 24.5778 112.911C38.9447 111.275 51.9239 121.559 53.5646 135.885C53.6944 137.003 53.7476 138.115 53.7376 139.216V139.23C53.4248 141.184 53.1685 143.152 52.9722 145.133C52.25 152.357 52.2833 159.764 53.1452 167.267C59.6648 224.152 111.189 264.985 168.227 258.484C225.269 251.983 266.226 200.607 259.707 143.723C253.187 86.8483 201.657 46.0149 144.615 52.5158C132.924 53.8465 121.902 57.072 111.831 61.8339C111.831 61.8339 111.827 61.8361 111.818 61.8406C110.017 62.6901 108.247 63.5993 106.503 64.5418C104.539 65.2751 102.456 65.7829 100.283 66.0317C85.8893 67.671 72.8969 57.3739 71.2528 43.0217C70.1346 33.2821 74.5376 24.1763 81.9923 18.8303C84.3152 17.5627 86.6781 16.3648 89.0776 15.2232C104.306 7.94589 120.99 3.04124 138.715 1.02032C224.277 -8.73256 301.57 52.529 311.351 137.839C321.128 223.156 259.694 300.227 174.131 309.98Z" fill="url(#paint0_linear_55_268)"/>
<defs>
<linearGradient id="paint0_linear_55_268" x1="30.2819" y1="29.7214" x2="36.4608" y2="35.9181" gradientUnits="userSpaceOnUse">
<stop stop-color="#662483"/>
<stop offset="0.94" stop-color="#F5F5F5"/>
</linearGradient>
</defs>
</svg>
